<svg width="44" height="14" viewBox="0 0 44 14" fill="none" xmlns="http://www.w3.org/2000/svg">
<g clip-path="url(#clip0_4259_712)">
<path d="M19.0667 13.7985H15.5024L17.7318 0.246094H21.2959L19.0667 13.7985Z" fill="#00579F"/>
<path d="M31.9875 0.576978C31.2845 0.302765 30.1694 0 28.7906 0C25.2708 0 22.7921 1.84533 22.7769 4.4836C22.7477 6.43011 24.5516 7.51125 25.9007 8.16028C27.2797 8.82349 27.7485 9.25637 27.7485 9.84752C27.7344 10.7554 26.6342 11.1739 25.608 11.1739C24.1849 11.1739 23.4224 10.9582 22.2637 10.4531L21.7944 10.2365L21.2956 13.2787C22.1316 13.6532 23.6717 13.9854 25.2708 14C29.0107 14 31.4455 12.1832 31.4743 9.37173C31.4886 7.82897 30.5361 6.64684 28.4825 5.68087C27.2358 5.06077 26.4724 4.64265 26.4724 4.00819C26.487 3.4314 27.1181 2.84062 28.5254 2.84062C29.6841 2.81169 30.5355 3.08552 31.1804 3.35954L31.5028 3.50345L31.9875 0.576978Z" fill="#00579F"/>
<path d="M36.7248 8.99734C37.0184 8.21878 38.1479 5.2055 38.1479 5.2055C38.1331 5.23443 38.4408 4.41256 38.6168 3.90802L38.8659 5.07577C38.8659 5.07577 39.5409 8.31976 39.6875 8.99734C39.1304 8.99734 37.4288 8.99734 36.7248 8.99734ZM41.1245 0.246094H38.3675C37.5173 0.246094 36.8714 0.490988 36.5046 1.37054L31.2103 13.7983H34.9502C34.9502 13.7983 35.5659 12.1256 35.6982 11.7653C36.1085 11.7653 39.7467 11.7653 40.2745 11.7653C40.3768 12.2411 40.6998 13.7983 40.6998 13.7983H44L41.1245 0.246094Z" fill="#00579F"/>
<path d="M12.5252 0.246094L9.03461 9.48752L8.65317 7.61325C8.00783 5.45059 5.98389 3.1009 3.72528 1.93257L6.92257 13.7841H10.6917L16.2942 0.246094H12.5252Z" fill="#00579F"/>
<path d="M5.79329 0.246094H0.0586675L0 0.519923C4.47337 1.64456 7.43599 4.35546 8.6532 7.61382L7.40656 1.38529C7.20132 0.519732 6.57059 0.274646 5.79329 0.246094Z" fill="#FAA61A"/>
</g>
<defs>
<clipPath id="clip0_4259_712">
<rect width="44" height="14" fill="white"/>
</clipPath>
</defs>
</svg>
